<svg width="18" height="18" viewBox="0 0 18 18" fill="none" xmlns="http://www.w3.org/2000/svg">
<path fill-rule="evenodd" clip-rule="evenodd" d="M17 3.4C17 2.10031 15.9502 1 14.6 1C13.9243 1 12.5218 1.40062 11.2898 1.80123C10.5452 2.04308 9.77231 2.16431 9 2.16492C8.22769 2.16431 7.45477 2.04308 6.71015 1.80123C5.47815 1.40062 4.07569 1 3.4 1C2.04985 1 1 2.10031 1 3.4C1 4.69969 1.8 7.4 1.8 7.4L1 15.4757C1 16.3175 1.68246 17 2.52431 17C3.06646 17 3.51692 16.6166 3.84123 16.2437L6.92677 12.5908C7.48308 11.9169 8.19508 11.4 9 11.4C9.80492 11.4 10.4665 11.8831 11.0732 12.5908L14.1588 16.2437C14.4665 16.6332 14.9335 17 15.4757 17C16.3175 17 17 16.3175 17 15.4757L16.2 7.4C16.2 7.4 17 4.69969 17 3.4V3.4Z" stroke="white" stroke-width="1.5" stroke-linecap="round" stroke-linejoin="round"/>
<path d="M6.59998 5.0892C7.38459 5.27197 8.18767 5.36428 8.9969 5.36551C9.81105 5.36428 10.6154 5.27197 11.4006 5.0892" stroke="white" stroke-width="1.5" stroke-linecap="round" stroke-linejoin="round"/>
</svg>
