<svg width="24" height="15" viewBox="0 0 24 15" fill="none" xmlns="http://www.w3.org/2000/svg">
<path fill-rule="evenodd" clip-rule="evenodd" d="M1 7.28571C1 7.28571 5.95 1 12 1C17.9714 1 23 7.28571 23 7.28571C23 7.28571 17.9714 13.5714 12 13.5714C6.02857 13.5714 1 7.28571 1 7.28571V7.28571Z" stroke="white" stroke-width="1.5" stroke-linecap="round" stroke-linejoin="round"/>
<path fill-rule="evenodd" clip-rule="evenodd" d="M11.9999 1C14.6038 1 16.7142 3.11043 16.7142 5.71429C16.7142 8.31814 14.6038 10.4286 11.9999 10.4286C9.39607 10.4286 7.28564 8.31814 7.28564 5.71429C7.28564 3.11043 9.39607 1 11.9999 1V1Z" stroke="white" stroke-width="1.5" stroke-linecap="round" stroke-linejoin="round"/>
<path d="M12 7.28578C11.1357 7.28578 10.4286 6.57864 10.4286 5.71436" stroke="white" stroke-width="1.5" stroke-linecap="round" stroke-linejoin="round"/>
</svg>
