<svg width="18" height="18" viewBox="0 0 18 18" fill="none" xmlns="http://www.w3.org/2000/svg">
<path fill-rule="evenodd" clip-rule="evenodd" d="M1 5.85714C1 3.17486 3.17486 1 5.85714 1C8.53943 1 10.7143 3.17486 10.7143 5.85714C10.7143 8.53943 8.53943 10.7143 5.85714 10.7143C3.17486 10.7143 1 8.53943 1 5.85714V5.85714Z" stroke="white" stroke-width="1.5" stroke-linecap="round" stroke-linejoin="round"/>
<path fill-rule="evenodd" clip-rule="evenodd" d="M10.1429 13.5715C10.1429 11.6777 11.6778 10.1429 13.5715 10.1429C15.4652 10.1429 17.0001 11.6777 17.0001 13.5715C17.0001 15.4652 15.4652 17 13.5715 17C11.6778 17 10.1429 15.4652 10.1429 13.5715V13.5715Z" stroke="white" stroke-width="1.5" stroke-linecap="round" stroke-linejoin="round"/>
<path fill-rule="evenodd" clip-rule="evenodd" d="M13.5714 5.5714C13.5714 4.62455 14.3388 3.85712 15.2857 3.85712C16.2326 3.85712 17 4.62455 17 5.5714C17 6.51826 16.2326 7.28569 15.2857 7.28569C14.3388 7.28569 13.5714 6.51826 13.5714 5.5714V5.5714Z" stroke="white" stroke-width="1.5" stroke-linecap="round" stroke-linejoin="round"/>
</svg>
