<svg width="18" height="18" viewBox="0 0 18 18" fill="none" xmlns="http://www.w3.org/2000/svg">
<path fill-rule="evenodd" clip-rule="evenodd" d="M7.13171 6.9183C7.13171 3.64972 8.71 1 8.71 1C8.71 1 10.2883 3.64972 10.2883 6.9183C10.2883 10.1869 8.71 12.8366 8.71 12.8366C8.71 12.8366 7.13171 10.1869 7.13171 6.9183V6.9183Z" stroke="white" stroke-width="1.5" stroke-linecap="round" stroke-linejoin="round"/>
<path fill-rule="evenodd" clip-rule="evenodd" d="M12.3314 10.0447C13.8469 8.5293 15.9126 8.1373 15.9126 8.1373C15.9126 8.1373 15.5212 10.203 14.0052 11.7185C12.4897 13.2345 10.424 13.6259 10.424 13.6259C10.424 13.6259 10.816 11.5602 12.3314 10.0447V10.0447Z" stroke="white" stroke-width="1.5" stroke-linecap="round" stroke-linejoin="round"/>
<path fill-rule="evenodd" clip-rule="evenodd" d="M13.4222 14.7142C15.0782 14.7142 16.4199 15.8571 16.4199 15.8571C16.4199 15.8571 15.0782 17 13.4222 17C11.7662 17 10.4244 15.8571 10.4244 15.8571C10.4244 15.8571 11.7662 14.7142 13.4222 14.7142V14.7142Z" stroke="white" stroke-width="1.5" stroke-linecap="round" stroke-linejoin="round"/>
<path fill-rule="evenodd" clip-rule="evenodd" d="M5.08854 9.99023C3.57311 8.4748 1.50739 8.08279 1.50739 8.08279C1.50739 8.08279 1.89881 10.1485 3.41482 11.6639C4.93025 13.18 6.99597 13.5714 6.99597 13.5714C6.99597 13.5714 6.60397 11.5057 5.08854 9.99023V9.99023Z" stroke="white" stroke-width="1.5" stroke-linecap="round" stroke-linejoin="round"/>
<path fill-rule="evenodd" clip-rule="evenodd" d="M3.99772 14.7142C2.34172 14.7142 1 15.8571 1 15.8571C1 15.8571 2.34172 17 3.99772 17C5.65373 17 6.99545 15.8571 6.99545 15.8571C6.99545 15.8571 5.65373 14.7142 3.99772 14.7142V14.7142Z" stroke="white" stroke-width="1.5" stroke-linecap="round" stroke-linejoin="round"/>
</svg>
